<svg width="25" height="24" viewBox="0 0 25 24" fill="none" xmlns="http://www.w3.org/2000/svg">
<g clip-path="url(#clip0_13_144)">
<path d="M12.08 0C5.45266 0 0.0800171 5.37264 0.0800171 12C0.0800171 17.6275 3.95458 22.3498 9.1813 23.6467V15.6672H6.7069V12H9.1813V10.4198C9.1813 6.33552 11.0298 4.4424 15.0397 4.4424C15.8 4.4424 17.1119 4.59168 17.6485 4.74048V8.06448C17.3653 8.03472 16.8733 8.01984 16.2623 8.01984C14.2947 8.01984 13.5344 8.76528 13.5344 10.703V12H17.4541L16.7807 15.6672H13.5344V23.9122C19.4763 23.1946 24.0805 18.1354 24.0805 12C24.08 5.37264 18.7074 0 12.08 0Z" fill="#D9D9D9"/>
</g>
<defs>
<clipPath id="clip0_13_144">
<rect width="24" height="24" fill="white" transform="translate(0.0800171)"/>
</clipPath>
</defs>
</svg>
