<svg width="25" height="25" viewBox="0 0 25 25" fill="none" xmlns="http://www.w3.org/2000/svg">
<path d="M12.9601 2.36553C16.1663 2.36553 16.546 2.37959 17.807 2.43584C18.9788 2.4874 19.6116 2.68428 20.0335 2.84834C20.5913 3.06397 20.9945 3.32646 21.4116 3.74365C21.8335 4.16553 22.0913 4.56396 22.307 5.12178C22.471 5.54365 22.6679 6.18115 22.7195 7.34834C22.7757 8.61396 22.7898 8.99365 22.7898 12.1952C22.7898 15.4015 22.7757 15.7812 22.7195 17.0421C22.6679 18.214 22.471 18.8468 22.307 19.2687C22.0913 19.8265 21.8288 20.2296 21.4116 20.6468C20.9898 21.0687 20.5913 21.3265 20.0335 21.5421C19.6116 21.7062 18.9741 21.903 17.807 21.9546C16.5413 22.0108 16.1616 22.0249 12.9601 22.0249C9.75383 22.0249 9.37415 22.0108 8.11321 21.9546C6.94133 21.903 6.30852 21.7062 5.88665 21.5421C5.32883 21.3265 4.92571 21.064 4.50852 20.6468C4.08665 20.2249 3.82883 19.8265 3.61321 19.2687C3.44915 18.8468 3.25227 18.2093 3.20071 17.0421C3.14446 15.7765 3.1304 15.3968 3.1304 12.1952C3.1304 8.98897 3.14446 8.60928 3.20071 7.34834C3.25227 6.17646 3.44915 5.54365 3.61321 5.12178C3.82883 4.56396 4.09133 4.16084 4.50852 3.74365C4.9304 3.32178 5.32883 3.06397 5.88665 2.84834C6.30852 2.68428 6.94602 2.4874 8.11321 2.43584C9.37415 2.37959 9.75383 2.36553 12.9601 2.36553ZM12.9601 0.20459C9.70227 0.20459 9.29446 0.218652 8.01477 0.274902C6.73977 0.331152 5.86321 0.537402 5.10383 0.832715C4.31165 1.14209 3.64133 1.5499 2.97571 2.22021C2.3054 2.88584 1.89758 3.55615 1.58821 4.34365C1.2929 5.10772 1.08665 5.97959 1.0304 7.25459C0.974146 8.53896 0.960083 8.94678 0.960083 12.2046C0.960083 15.4624 0.974146 15.8702 1.0304 17.1499C1.08665 18.4249 1.2929 19.3015 1.58821 20.0608C1.89758 20.853 2.3054 21.5233 2.97571 22.189C3.64133 22.8546 4.31165 23.2671 5.09915 23.5718C5.86321 23.8671 6.73508 24.0733 8.01008 24.1296C9.28977 24.1858 9.69758 24.1999 12.9554 24.1999C16.2132 24.1999 16.621 24.1858 17.9007 24.1296C19.1757 24.0733 20.0523 23.8671 20.8116 23.5718C21.5991 23.2671 22.2695 22.8546 22.9351 22.189C23.6007 21.5233 24.0132 20.853 24.3179 20.0655C24.6132 19.3015 24.8195 18.4296 24.8757 17.1546C24.932 15.8749 24.946 15.4671 24.946 12.2093C24.946 8.95147 24.932 8.54365 24.8757 7.26397C24.8195 5.98897 24.6132 5.1124 24.3179 4.35303C24.0226 3.55615 23.6148 2.88584 22.9445 2.22021C22.2788 1.55459 21.6085 1.14209 20.821 0.837402C20.057 0.54209 19.1851 0.33584 17.9101 0.27959C16.6257 0.218652 16.2179 0.20459 12.9601 0.20459Z" fill="#D9D9D9"/>
<path d="M12.9601 6.04053C9.55696 6.04053 6.79602 8.80147 6.79602 12.2046C6.79602 15.6077 9.55696 18.3687 12.9601 18.3687C16.3632 18.3687 19.1241 15.6077 19.1241 12.2046C19.1241 8.80147 16.3632 6.04053 12.9601 6.04053ZM12.9601 16.203C10.7523 16.203 8.96165 14.4124 8.96165 12.2046C8.96165 9.99678 10.7523 8.20615 12.9601 8.20615C15.1679 8.20615 16.9585 9.99678 16.9585 12.2046C16.9585 14.4124 15.1679 16.203 12.9601 16.203Z" fill="#D9D9D9"/>
<path d="M20.807 5.79679C20.807 6.59367 20.1601 7.23586 19.3679 7.23586C18.571 7.23586 17.9288 6.58898 17.9288 5.79679C17.9288 4.99992 18.5757 4.35773 19.3679 4.35773C20.1601 4.35773 20.807 5.0046 20.807 5.79679Z" fill="#D9D9D9"/>
</svg>
