<svg width="97" height="91" viewBox="0 0 97 91" fill="none" xmlns="http://www.w3.org/2000/svg">
<path fill-rule="evenodd" clip-rule="evenodd" d="M3.47638 37.3667L13.4863 55.954L21.7492 54.6671L3.47638 37.3667ZM79.3046 88.377L71.0999 60.7988L48.9896 52.2447L53.5724 75.5079L79.3046 88.377ZM72.6604 61.4044L80.4576 64.4208L79.8345 85.5236L72.6604 61.4044ZM76.3989 88.4002L55.5115 85.3489L53.8927 77.1442L76.3989 88.4002ZM80.277 90.2986L54.8593 86.5893L54.3934 86.5194L54.3003 86.0594L48.1045 54.6147L41.9087 86.0594L41.8156 86.5194L41.3497 86.5893L15.932 90.2986L15.1983 90.4034L15.175 89.658L14.4121 63.984L14.4005 63.5182L14.8372 63.3493L42.031 52.8328L13.2126 57.3224L12.7526 57.3923L12.5313 56.9789L0.349389 34.362L0 33.7098L0.687137 33.4361L24.556 23.9387L24.9869 23.764L25.2955 24.1134L44.599 46.2003L30.4314 20.4914L30.2044 20.0838L30.513 19.7344L47.5979 0.553191L48.0929 0L48.5878 0.553191L65.6727 19.7344L65.9814 20.0838L65.7543 20.4914L51.5867 46.2062L70.8902 24.1192L71.1989 23.7698L71.6298 23.9445L95.4986 33.442L96.1857 33.7157L95.8363 34.3678L83.6544 56.9847L83.4332 57.3981L82.9731 57.3283L54.1547 52.8387L81.3485 63.3551L81.7852 63.524L81.7736 63.9899L81.0108 89.6638L80.9875 90.4092L80.277 90.2986ZM93.7109 34.6241L72.8177 54.4051L49.3914 50.754L64.9914 32.9004L93.7109 34.6241ZM66.092 31.6426L91.2128 33.1508L71.5948 25.3479L66.092 31.6426ZM92.7384 37.3667L82.7286 55.954L74.4656 54.6671L92.7384 37.3667ZM50.3464 4.51289L60.3563 27.6014L64.3917 20.276L50.3464 4.51289ZM59.5469 29.063L48.1045 2.66697L36.668 29.063L48.1103 49.8281L59.5469 29.063ZM35.8586 27.6014L45.8684 4.51289L31.8232 20.276L35.8586 27.6014ZM16.3862 85.5236L23.5602 61.4044L15.7631 64.4208L16.3862 85.5236ZM25.115 60.7988L47.2252 52.2447L42.6425 75.5079L16.9102 88.3711L25.115 60.7988ZM42.3222 77.1442L19.816 88.3944L40.7034 85.3431L42.3222 77.1442ZM23.3972 54.4051L2.50394 34.6241L31.2234 32.9004L46.8234 50.754L23.3972 54.4051ZM30.1228 31.6426L24.62 25.3479L5.00204 33.1508L30.1228 31.6426Z" fill="#C09B63"/>
</svg>
