<?xml version="1.0" encoding="utf-8"?>
<!-- Generator: Adobe Illustrator 24.0.1, SVG Export Plug-In . SVG Version: 6.00 Build 0)  -->
<svg version="1.1" id="Layer_1" xmlns="http://www.w3.org/2000/svg" xmlns:xlink="http://www.w3.org/1999/xlink" x="0px" y="0px"
	 viewBox="0 0 97 91" style="enable-background:new 0 0 97 91;" xml:space="preserve">
<style type="text/css">
	.st0{fill-rule:evenodd;clip-rule:evenodd;fill:#FFFFFF;}
	.st1{fill-rule:evenodd;clip-rule:evenodd;fill:#B18F4F;}
</style>
<polyline class="st0" points="25.4,24.5 1.8,33.8 13.8,57.6 42.7,53 15.4,63.6 16.2,90.1 42.5,86.3 48.7,54.8 54.8,85.9 81.2,90.1 
	82,64.1 54.7,53 83.2,57.4 96.2,34.1 71.5,24.3 52.2,46.5 66.2,21.1 48.7,0.8 31.4,20.3 45.2,46.5 "/>
<path class="st1" d="M4.6,37.8l9.9,18.4l8.2-1.3L4.6,37.8L4.6,37.8z M79.5,88.2l-8.1-27.3l-21.9-8.5l4.5,23L79.5,88.2L79.5,88.2z
	 M73,61.5l7.7,3L80,85.3L73,61.5L73,61.5z M76.6,88.2l-20.7-3l-1.6-8.1L76.6,88.2L76.6,88.2z M80.5,90.1l-25.1-3.7L55,86.3l-0.1-0.5
	l-6.1-31.1l-6.1,31.1l-0.1,0.5l-0.5,0.1L17,90.1l-0.7,0.1v-0.7l-0.7-25.4v-0.5l0.4-0.2L42.8,53l-28.5,4.4l-0.5,0.1l-0.2-0.4
	l-12-22.3l-0.3-0.6l0.7-0.3l23.6-9.4l0.4-0.2l0.3,0.3l19,21.8L31.2,21L31,20.6l0.3-0.3L48.2,1.3l0.5-0.6l0.5,0.6l16.9,18.9l0.3,0.3
	L66,21L52.2,46.5l19-21.8l0.3-0.3l0.4,0.2l23.6,9.4l0.7,0.3l-0.3,0.6l-12,22.3l-0.2,0.4l-0.5-0.1l-28.5-4.4l26.9,10.4l0.4,0.2v0.5
	l-0.7,25.4v0.7L80.5,90.1L80.5,90.1z M93.8,35.1L73.1,54.6L50,51l15.4-17.7L93.8,35.1L93.8,35.1z M66.5,32.1l24.8,1.5l-19.3-7.7
	L66.5,32.1L66.5,32.1z M92.8,37.8l-9.9,18.4l-8.2-1.3L92.8,37.8L92.8,37.8z M50.9,5.2L60.8,28l4-7.3L50.9,5.2L50.9,5.2z M60,29.5
	L48.7,3.5L37.5,29.5l11.3,20.5L60,29.5L60,29.5z M36.6,28.1l9.9-22.8L32.6,20.8L36.6,28.1L36.6,28.1z M17.4,85.3l7.1-23.8l-7.7,3
	L17.4,85.3L17.4,85.3z M26,60.9l21.9-8.5l-4.5,23L17.9,88.2L26,60.9L26,60.9z M43,77.1L20.8,88.2l20.7-3L43,77.1L43,77.1z
	 M24.3,54.6L3.6,35L32,33.3l15.4,17.7L24.3,54.6L24.3,54.6z M31,32.1l-5.4-6.2L6.2,33.6L31,32.1z"/>
</svg>
