<svg width="24" height="25" viewBox="0 0 24 25" fill="none" xmlns="http://www.w3.org/2000/svg">
<g clip-path="url(#clip0_9_214)">
<path d="M17.3498 0.20459H13.4668V16.5524C13.4668 18.5003 11.9734 20.1003 10.1149 20.1003C8.25645 20.1003 6.76303 18.5003 6.76303 16.5524C6.76303 14.6394 8.22327 13.0741 10.0154 13.0046V8.90026C6.0661 8.96979 2.88013 12.3437 2.88013 16.5524C2.88013 20.7959 6.13247 24.2046 10.1481 24.2046C14.1637 24.2046 17.4161 20.7611 17.4161 16.5524V8.16979C18.8763 9.28286 20.6684 9.94372 22.5601 9.97852V5.87416C19.6397 5.76981 17.3498 3.26546 17.3498 0.20459Z" fill="#D9D9D9"/>
</g>
<defs>
<clipPath id="clip0_9_214">
<rect width="23.04" height="24" fill="white" transform="translate(0.960083 0.20459)"/>
</clipPath>
</defs>
</svg>
