<svg width="24" height="24" viewBox="0 0 24 24" fill="none" xmlns="http://www.w3.org/2000/svg">
<g clip-path="url(#clip0_13_142)">
<path d="M22.8505 7.20005C22.8505 7.20005 22.6255 5.54536 21.9325 4.8188C21.055 3.86255 20.074 3.85786 19.624 3.80161C16.402 3.55786 11.5645 3.55786 11.5645 3.55786H11.5555C11.5555 3.55786 6.71798 3.55786 3.49598 3.80161C3.04598 3.85786 2.06498 3.86255 1.18748 4.8188C0.494478 5.54536 0.273978 7.20005 0.273978 7.20005C0.273978 7.20005 0.039978 9.14536 0.039978 11.086V12.9047C0.039978 14.8454 0.269478 16.7907 0.269478 16.7907C0.269478 16.7907 0.494478 18.4454 1.18298 19.1719C2.06048 20.1282 3.21248 20.0954 3.72548 20.1985C5.57048 20.3813 11.56 20.4375 11.56 20.4375C11.56 20.4375 16.402 20.4282 19.624 20.1891C20.074 20.1329 21.055 20.1282 21.9325 19.1719C22.6255 18.4454 22.8505 16.7907 22.8505 16.7907C22.8505 16.7907 23.08 14.85 23.08 12.9047V11.086C23.08 9.14536 22.8505 7.20005 22.8505 7.20005ZM9.17948 15.1125V8.36724L15.403 11.7516L9.17948 15.1125Z" fill="#D9D9D9"/>
</g>
<defs>
<clipPath id="clip0_13_142">
<rect width="23.04" height="24" fill="white" transform="translate(0.039978)"/>
</clipPath>
</defs>
</svg>
